<?xml version="1.0" standalone="no"?>
<!DOCTYPE svg PUBLIC "-//W3C//DTD SVG 20010904//EN"
 "http://www.w3.org/TR/2001/REC-SVG-20010904/DTD/svg10.dtd">
<svg version="1.0" xmlns="http://www.w3.org/2000/svg"
 width="73.000000pt" height="73.000000pt" viewBox="0 0 73.000000 73.000000"
 preserveAspectRatio="xMidYMid meet">
<metadata>
Created by potrace 1.11, written by Peter Selinger 2001-2013
</metadata>
<g transform="translate(0.000000,73.000000) scale(0.100000,-0.100000)"
fill="#000000" stroke="none">
<path d="M0 365 l0 -365 365 0 365 0 0 365 0 365 -365 0 -365 0 0 -365z m210
260 c0 -33 -2 -35 -35 -35 -33 0 -35 2 -35 35 0 33 2 35 35 35 33 0 35 -2 35
-35z m370 0 c0 -33 -2 -35 -35 -35 -33 0 -35 2 -35 35 0 33 2 35 35 35 33 0
35 -2 35 -35z m-150 -145 l0 -110 75 0 75 0 0 -35 c0 -33 2 -35 35 -35 l35 0
0 -75 0 -75 -35 0 c-33 0 -35 -2 -35 -35 l0 -35 -75 0 -75 0 0 35 0 35 -70 0
-70 0 0 -35 0 -35 -75 0 -75 0 0 35 c0 33 -2 35 -35 35 l-35 0 0 75 0 75 35 0
c33 0 35 2 35 35 l0 35 75 0 75 0 0 110 0 110 70 0 70 0 0 -110z"/>
<path d="M290 335 l0 -35 70 0 70 0 0 35 0 35 -70 0 -70 0 0 -35z"/>
<path d="M140 225 l0 -75 75 0 75 0 0 35 c0 34 -1 35 -40 35 l-40 0 0 40 c0
39 -1 40 -35 40 l-35 0 0 -75z"/>
<path d="M510 260 l0 -40 -40 0 c-39 0 -40 -1 -40 -35 l0 -35 75 0 75 0 0 75
0 75 -35 0 c-34 0 -35 -1 -35 -40z"/>
</g>
</svg>
